<svg width="1920" height="955" xmlns="http://www.w3.org/2000/svg"><g><path d="M-105.3388765733689,-66.74000300467014L-132.9855906777084,127.9590770881623L92.77762901969254,85.12976188212633Z" fill="#f7fdff" stroke="#f7fdff"></path><path d="M-105.3388765733689,-66.74000300467014L92.77762901969254,85.12976188212633L56.19743281044066,-85.02445997670293Z" fill="#f5fbfd" stroke="#f5fbfd"></path><path d="M56.19743281044066,-85.02445997670293L92.77762901969254,85.12976188212633L169.21537430025637,-18.763210577890277Z" fill="#f0f9f9" stroke="#f0f9f9"></path><path d="M56.19743281044066,-85.02445997670293L169.21537430025637,-18.763210577890277L404.75368349812925,-89.53769168816507Z" fill="#eaf7f5" stroke="#eaf7f5"></path><path d="M56.19743281044066,-85.02445997670293L404.75368349812925,-89.53769168816507L566.6593600530177,-119.74904981441796Z" fill="#dff3ef" stroke="#dff3ef"></path><path d="M169.21537430025637,-18.763210577890277L92.77762901969254,85.12976188212633L181.11209937371314,79.08330168575048Z" fill="#ebf9f8" stroke="#ebf9f8"></path><path d="M169.21537430025637,-18.763210577890277L181.11209937371314,79.08330168575048L352.7550693321973,41.150479624047875Z" fill="#e7f7f4" stroke="#e7f7f4"></path><path d="M169.21537430025637,-18.763210577890277L352.7550693321973,41.150479624047875L404.75368349812925,-89.53769168816507Z" fill="#e3f4f1" stroke="#e3f4f1"></path><path d="M404.75368349812925,-89.53769168816507L352.7550693321973,41.150479624047875L581.5401513688266,25.040461979806423Z" fill="#d6efea" stroke="#d6efea"></path><path d="M404.75368349812925,-89.53769168816507L581.5401513688266,25.040461979806423L566.6593600530177,-119.74904981441796Z" fill="#cfede6" stroke="#cfede6"></path><path d="M566.6593600530177,-119.74904981441796L581.5401513688266,25.040461979806423L682.2095375228673,-103.20614009164274Z" fill="#c7e9e0" stroke="#c7e9e0"></path><path d="M566.6593600530177,-119.74904981441796L682.2095375228673,-103.20614009164274L809.9661219958216,-116.85356215573847Z" fill="#bfe6db" stroke="#bfe6db"></path><path d="M566.6593600530177,-119.74904981441796L809.9661219958216,-116.85356215573847L1135.8459147904068,-125.43209563940763Z" fill="#b2e0d1" stroke="#b2e0d1"></path><path d="M682.2095375228673,-103.20614009164274L581.5401513688266,25.040461979806423L622.4373083654791,54.241225915029645Z" fill="#c5e9df" stroke="#c5e9df"></path><path d="M682.2095375228673,-103.20614009164274L622.4373083654791,54.241225915029645L790.4923575650901,120.22219084203243Z" fill="#bde6da" stroke="#bde6da"></path><path d="M682.2095375228673,-103.20614009164274L790.4923575650901,120.22219084203243L809.9661219958216,-116.85356215573847Z" fill="#b9e3d6" stroke="#b9e3d6"></path><path d="M809.9661219958216,-116.85356215573847L790.4923575650901,120.22219084203243L944.8634494934231,-89.35538350604475Z" fill="#b1e0d0" stroke="#b1e0d0"></path><path d="M809.9661219958216,-116.85356215573847L944.8634494934231,-89.35538350604475L1135.8459147904068,-125.43209563940763Z" fill="#a9dcc6" stroke="#a9dcc6"></path><path d="M944.8634494934231,-89.35538350604475L790.4923575650901,120.22219084203243L995.6303819362074,131.8808062467724Z" fill="#aadeca" stroke="#aadeca"></path><path d="M944.8634494934231,-89.35538350604475L995.6303819362074,131.8808062467724L1073.5797193832695,82.35916955396533Z" fill="#a4dac3" stroke="#a4dac3"></path><path d="M944.8634494934231,-89.35538350604475L1073.5797193832695,82.35916955396533L1135.8459147904068,-125.43209563940763Z" fill="#a3d8bf" stroke="#a3d8bf"></path><path d="M1135.8459147904068,-125.43209563940763L1073.5797193832695,82.35916955396533L1217.3104901332408,-60.70608769543469Z" fill="#9ed4b7" stroke="#9ed4b7"></path><path d="M1135.8459147904068,-125.43209563940763L1217.3104901332408,-60.70608769543469L1365.5230244714767,-58.507748544216156Z" fill="#98ceae" stroke="#98ceae"></path><path d="M1135.8459147904068,-125.43209563940763L1365.5230244714767,-58.507748544216156L1585.6586226448417,-49.63466830551624Z" fill="#92c6a3" stroke="#92c6a3"></path><path d="M1135.8459147904068,-125.43209563940763L1585.6586226448417,-49.63466830551624L1863.9604637213051,-84.29178264923394Z" fill="#87b799" stroke="#87b799"></path><path d="M1217.3104901332408,-60.70608769543469L1073.5797193832695,82.35916955396533L1228.5593669582158,116.65709084831178Z" fill="#9ad2b4" stroke="#9ad2b4"></path><path d="M1217.3104901332408,-60.70608769543469L1228.5593669582158,116.65709084831178L1365.5230244714767,-58.507748544216156Z" fill="#97ccab" stroke="#97ccab"></path><path d="M1365.5230244714767,-58.507748544216156L1228.5593669582158,116.65709084831178L1457.8979287482798,25.2646819408983Z" fill="#91c7a4" stroke="#91c7a4"></path><path d="M1365.5230244714767,-58.507748544216156L1457.8979287482798,25.2646819408983L1585.6586226448417,-49.63466830551624Z" fill="#8bbc9c" stroke="#8bbc9c"></path><path d="M1585.6586226448417,-49.63466830551624L1457.8979287482798,25.2646819408983L1517.8264223691076,44.8867969494313Z" fill="#87b799" stroke="#87b799"></path><path d="M1585.6586226448417,-49.63466830551624L1517.8264223691076,44.8867969494313L1632.4511792790145,170.96379107795656Z" fill="#82b296" stroke="#82b296"></path><path d="M1585.6586226448417,-49.63466830551624L1632.4511792790145,170.96379107795656L1781.33859959431,65.60704090632498Z" fill="#7daa91" stroke="#7daa91"></path><path d="M1585.6586226448417,-49.63466830551624L1781.33859959431,65.60704090632498L1776.8611397221684,-35.84211274981499Z" fill="#80a58e" stroke="#80a58e"></path><path d="M1585.6586226448417,-49.63466830551624L1776.8611397221684,-35.84211274981499L1863.9604637213051,-84.29178264923394Z" fill="#80a38c" stroke="#80a38c"></path><path d="M1776.8611397221684,-35.84211274981499L1781.33859959431,65.60704090632498L1863.4736199583858,65.57223572395742Z" fill="#7e9d88" stroke="#7e9d88"></path><path d="M1776.8611397221684,-35.84211274981499L1863.4736199583858,65.57223572395742L1863.9604637213051,-84.29178264923394Z" fill="#809a86" stroke="#809a86"></path><path d="M1863.9604637213051,-84.29178264923394L1863.4736199583858,65.57223572395742L2034.9245163984597,-33.828559666872025Z" fill="#809281" stroke="#809281"></path><path d="M2034.9245163984597,-33.828559666872025L1863.4736199583858,65.57223572395742L2078.8332485966384,19.65186059474945Z" fill="#7f8c80" stroke="#7f8c80"></path><path d="M-132.9855906777084,127.9590770881623L-111.98599454015493,674.9000600259751L-77.74957009591162,251.0856946092099Z" fill="#c7f7eb" stroke="#c7f7eb"></path><path d="M-132.9855906777084,127.9590770881623L-77.74957009591162,251.0856946092099L105.91523772105575,174.97497743926942Z" fill="#e7fdfc" stroke="#e7fdfc"></path><path d="M-132.9855906777084,127.9590770881623L105.91523772105575,174.97497743926942L92.77762901969254,85.12976188212633Z" fill="#effbfc" stroke="#effbfc"></path><path d="M92.77762901969254,85.12976188212633L105.91523772105575,174.97497743926942L181.11209937371314,79.08330168575048Z" fill="#eaf9f8" stroke="#eaf9f8"></path><path d="M181.11209937371314,79.08330168575048L105.91523772105575,174.97497743926942L280.77373104169965,191.26754972152412Z" fill="#e2f8f6" stroke="#e2f8f6"></path><path d="M181.11209937371314,79.08330168575048L280.77373104169965,191.26754972152412L352.7550693321973,41.150479624047875Z" fill="#e1f6f3" stroke="#e1f6f3"></path><path d="M352.7550693321973,41.150479624047875L280.77373104169965,191.26754972152412L434.6602255292237,188.97523948922753Z" fill="#d7f3ee" stroke="#d7f3ee"></path><path d="M352.7550693321973,41.150479624047875L434.6602255292237,188.97523948922753L581.5401513688266,25.040461979806423Z" fill="#d1efe9" stroke="#d1efe9"></path><path d="M581.5401513688266,25.040461979806423L434.6602255292237,188.97523948922753L575.2482701092958,169.78396601043642Z" fill="#c8ece5" stroke="#c8ece5"></path><path d="M581.5401513688266,25.040461979806423L575.2482701092958,169.78396601043642L622.4373083654791,54.241225915029645Z" fill="#c5eae1" stroke="#c5eae1"></path><path d="M622.4373083654791,54.241225915029645L575.2482701092958,169.78396601043642L680.2884583454579,255.52789913490415Z" fill="#bae9de" stroke="#bae9de"></path><path d="M622.4373083654791,54.241225915029645L680.2884583454579,255.52789913490415L790.4923575650901,120.22219084203243Z" fill="#b7e6da" stroke="#b7e6da"></path><path d="M790.4923575650901,120.22219084203243L680.2884583454579,255.52789913490415L789.3554767873138,266.56941739842296Z" fill="#a2e4d2" stroke="#a2e4d2"></path><path d="M790.4923575650901,120.22219084203243L789.3554767873138,266.56941739842296L964.8824831563979,279.64746524579823Z" fill="#98e0cb" stroke="#98e0cb"></path><path d="M790.4923575650901,120.22219084203243L964.8824831563979,279.64746524579823L995.6303819362074,131.8808062467724Z" fill="#9dddc8" stroke="#9dddc8"></path><path d="M995.6303819362074,131.8808062467724L964.8824831563979,279.64746524579823L1165.1943221781403,192.45273026637733Z" fill="#8fd9bc" stroke="#8fd9bc"></path><path d="M995.6303819362074,131.8808062467724L1165.1943221781403,192.45273026637733L1073.5797193832695,82.35916955396533Z" fill="#9cd7bc" stroke="#9cd7bc"></path><path d="M1073.5797193832695,82.35916955396533L1165.1943221781403,192.45273026637733L1228.5593669582158,116.65709084831178Z" fill="#98d3b6" stroke="#98d3b6"></path><path d="M1228.5593669582158,116.65709084831178L1165.1943221781403,192.45273026637733L1258.2004136312753,207.59387855418026Z" fill="#8ccfae" stroke="#8ccfae"></path><path d="M1228.5593669582158,116.65709084831178L1258.2004136312753,207.59387855418026L1457.8979287482798,25.2646819408983Z" fill="#8fc9a7" stroke="#8fc9a7"></path><path d="M1457.8979287482798,25.2646819408983L1258.2004136312753,207.59387855418026L1463.6415054369718,239.24735186621547Z" fill="#85c3a0" stroke="#85c3a0"></path><path d="M1457.8979287482798,25.2646819408983L1463.6415054369718,239.24735186621547L1517.8264223691076,44.8867969494313Z" fill="#86bb9c" stroke="#86bb9c"></path><path d="M1517.8264223691076,44.8867969494313L1463.6415054369718,239.24735186621547L1632.4511792790145,170.96379107795656Z" fill="#7db697" stroke="#7db697"></path><path d="M1781.33859959431,65.60704090632498L1632.4511792790145,170.96379107795656L1713.2646796200424,195.35703694447875Z" fill="#78a68d" stroke="#78a68d"></path><path d="M1781.33859959431,65.60704090632498L1713.2646796200424,195.35703694447875L1869.4767839927226,208.07683797553182Z" fill="#759f88" stroke="#759f88"></path><path d="M1781.33859959431,65.60704090632498L1869.4767839927226,208.07683797553182L1863.4736199583858,65.57223572395742Z" fill="#7b9a86" stroke="#7b9a86"></path><path d="M1863.4736199583858,65.57223572395742L1869.4767839927226,208.07683797553182L2019.9259704910219,249.04425672255456Z" fill="#71927f" stroke="#71927f"></path><path d="M1863.4736199583858,65.57223572395742L2019.9259704910219,249.04425672255456L2078.8332485966384,19.65186059474945Z" fill="#7b8c80" stroke="#7b8c80"></path><path d="M2078.8332485966384,19.65186059474945L2019.9259704910219,249.04425672255456L2047.0525591727346,667.2186919581145Z" fill="#538372" stroke="#538372"></path><path d="M2078.8332485966384,19.65186059474945L2047.0525591727346,667.2186919581145L2078.0281329900026,818.3260860946029Z" fill="#2e7050" stroke="#2e7050"></path><path d="M-77.74957009591162,251.0856946092099L-111.98599454015493,674.9000600259751L-60.42540377005935,545.6982308719307Z" fill="#abebd1" stroke="#abebd1"></path><path d="M-77.74957009591162,251.0856946092099L-60.42540377005935,545.6982308719307L-31.36472244746983,323.12187602743506Z" fill="#bff4e8" stroke="#bff4e8"></path><path d="M-77.74957009591162,251.0856946092099L-31.36472244746983,323.12187602743506L105.91523772105575,174.97497743926942Z" fill="#d7fcf7" stroke="#d7fcf7"></path><path d="M105.91523772105575,174.97497743926942L-31.36472244746983,323.12187602743506L113.95086779259145,394.1834637802094Z" fill="#c8f8ef" stroke="#c8f8ef"></path><path d="M105.91523772105575,174.97497743926942L113.95086779259145,394.1834637802094L247.6305847428739,395.15769238583744Z" fill="#bdf4e8" stroke="#bdf4e8"></path><path d="M105.91523772105575,174.97497743926942L247.6305847428739,395.15769238583744L280.77373104169965,191.26754972152412Z" fill="#caf7ef" stroke="#caf7ef"></path><path d="M280.77373104169965,191.26754972152412L247.6305847428739,395.15769238583744L433.19632563740015,346.91032416187227Z" fill="#b4f1e3" stroke="#b4f1e3"></path><path d="M280.77373104169965,191.26754972152412L433.19632563740015,346.91032416187227L434.6602255292237,188.97523948922753Z" fill="#bef2e7" stroke="#bef2e7"></path><path d="M434.6602255292237,188.97523948922753L433.19632563740015,346.91032416187227L575.2482701092958,169.78396601043642Z" fill="#b7eee2" stroke="#b7eee2"></path><path d="M575.2482701092958,169.78396601043642L433.19632563740015,346.91032416187227L505.54958313703537,390.4036742448807Z" fill="#a5ebda" stroke="#a5ebda"></path><path d="M575.2482701092958,169.78396601043642L505.54958313703537,390.4036742448807L680.2884583454579,255.52789913490415Z" fill="#a4eada" stroke="#a4eada"></path><path d="M680.2884583454579,255.52789913490415L505.54958313703537,390.4036742448807L622.2556752339005,420.0374452024698Z" fill="#90e2cc" stroke="#90e2cc"></path><path d="M680.2884583454579,255.52789913490415L622.2556752339005,420.0374452024698L821.1988715082407,423.6892852652818Z" fill="#84ddc3" stroke="#84ddc3"></path><path d="M680.2884583454579,255.52789913490415L821.1988715082407,423.6892852652818L789.3554767873138,266.56941739842296Z" fill="#8ae0c7" stroke="#8ae0c7"></path><path d="M789.3554767873138,266.56941739842296L821.1988715082407,423.6892852652818L964.8824831563979,279.64746524579823Z" fill="#80dbbf" stroke="#80dbbf"></path><path d="M964.8824831563979,279.64746524579823L821.1988715082407,423.6892852652818L981.8176669813693,412.6494967471808Z" fill="#72d5b2" stroke="#72d5b2"></path><path d="M964.8824831563979,279.64746524579823L981.8176669813693,412.6494967471808L1131.2970050051808,387.2544597554952Z" fill="#6dd2ab" stroke="#6dd2ab"></path><path d="M964.8824831563979,279.64746524579823L1131.2970050051808,387.2544597554952L1165.1943221781403,192.45273026637733Z" fill="#79d6b2" stroke="#79d6b2"></path><path d="M1165.1943221781403,192.45273026637733L1131.2970050051808,387.2544597554952L1280.1922854501754,331.0202184319496Z" fill="#70cea6" stroke="#70cea6"></path><path d="M1165.1943221781403,192.45273026637733L1280.1922854501754,331.0202184319496L1258.2004136312753,207.59387855418026Z" fill="#7bcea8" stroke="#7bcea8"></path><path d="M1258.2004136312753,207.59387855418026L1280.1922854501754,331.0202184319496L1463.6415054369718,239.24735186621547Z" fill="#72c89f" stroke="#72c89f"></path><path d="M1463.6415054369718,239.24735186621547L1280.1922854501754,331.0202184319496L1434.7646291088313,342.11984801106155Z" fill="#64c094" stroke="#64c094"></path><path d="M1463.6415054369718,239.24735186621547L1434.7646291088313,342.11984801106155L1613.661936353892,392.98046845011413Z" fill="#59b48a" stroke="#59b48a"></path><path d="M1463.6415054369718,239.24735186621547L1613.661936353892,392.98046845011413L1632.4511792790145,170.96379107795656Z" fill="#61b38f" stroke="#61b38f"></path><path d="M1632.4511792790145,170.96379107795656L1613.661936353892,392.98046845011413L1713.2646796200424,195.35703694447875Z" fill="#60ab8b" stroke="#60ab8b"></path><path d="M1713.2646796200424,195.35703694447875L1613.661936353892,392.98046845011413L1725.0784937571734,362.01529922895133Z" fill="#51a481" stroke="#51a481"></path><path d="M1713.2646796200424,195.35703694447875L1725.0784937571734,362.01529922895133L1841.4997030422091,344.7648416273296Z" fill="#559f7f" stroke="#559f7f"></path><path d="M1713.2646796200424,195.35703694447875L1841.4997030422091,344.7648416273296L1869.4767839927226,208.07683797553182Z" fill="#609d82" stroke="#609d82"></path><path d="M1869.4767839927226,208.07683797553182L1841.4997030422091,344.7648416273296L2006.1967394594103,320.78400478698313Z" fill="#579278" stroke="#579278"></path><path d="M1869.4767839927226,208.07683797553182L2006.1967394594103,320.78400478698313L2019.9259704910219,249.04425672255456Z" fill="#5e8e79" stroke="#5e8e79"></path><path d="M2019.9259704910219,249.04425672255456L2006.1967394594103,320.78400478698313L2047.0525591727346,667.2186919581145Z" fill="#3c7c62" stroke="#3c7c62"></path><path d="M-31.36472244746983,323.12187602743506L-60.42540377005935,545.6982308719307L113.95086779259145,394.1834637802094Z" fill="#b1efdd" stroke="#b1efdd"></path><path d="M113.95086779259145,394.1834637802094L-60.42540377005935,545.6982308719307L41.31393704563379,571.3526304066181Z" fill="#a2e7cc" stroke="#a2e7cc"></path><path d="M113.95086779259145,394.1834637802094L41.31393704563379,571.3526304066181L249.97697015292943,573.5352505277842Z" fill="#9be4c6" stroke="#9be4c6"></path><path d="M113.95086779259145,394.1834637802094L249.97697015292943,573.5352505277842L247.6305847428739,395.15769238583744Z" fill="#9fe7cf" stroke="#9fe7cf"></path><path d="M247.6305847428739,395.15769238583744L249.97697015292943,573.5352505277842L339.2979038134217,580.9060389082879Z" fill="#91e0c0" stroke="#91e0c0"></path><path d="M247.6305847428739,395.15769238583744L339.2979038134217,580.9060389082879L433.19632563740015,346.91032416187227Z" fill="#98e4cb" stroke="#98e4cb"></path><path d="M433.19632563740015,346.91032416187227L339.2979038134217,580.9060389082879L505.54958313703537,390.4036742448807Z" fill="#90e2c7" stroke="#90e2c7"></path><path d="M505.54958313703537,390.4036742448807L339.2979038134217,580.9060389082879L537.7587206661701,505.21025989204645Z" fill="#84dbbb" stroke="#84dbbb"></path><path d="M505.54958313703537,390.4036742448807L537.7587206661701,505.21025989204645L622.2556752339005,420.0374452024698Z" fill="#84ddc0" stroke="#84ddc0"></path><path d="M622.2556752339005,420.0374452024698L537.7587206661701,505.21025989204645L631.9032646715641,574.9711329862475Z" fill="#76d6b1" stroke="#76d6b1"></path><path d="M622.2556752339005,420.0374452024698L631.9032646715641,574.9711329862475L821.1988715082407,423.6892852652818Z" fill="#71d5b0" stroke="#71d5b0"></path><path d="M821.1988715082407,423.6892852652818L631.9032646715641,574.9711329862475L842.063866071403,478.79900115542114Z" fill="#68d0a7" stroke="#68d0a7"></path><path d="M821.1988715082407,423.6892852652818L842.063866071403,478.79900115542114L962.4747933726758,476.77032524719834Z" fill="#64cea6" stroke="#64cea6"></path><path d="M821.1988715082407,423.6892852652818L962.4747933726758,476.77032524719834L981.8176669813693,412.6494967471808Z" fill="#65cfa6" stroke="#65cfa6"></path><path d="M981.8176669813693,412.6494967471808L962.4747933726758,476.77032524719834L1111.8049180414528,470.2608523797244Z" fill="#5cca9b" stroke="#5cca9b"></path><path d="M981.8176669813693,412.6494967471808L1111.8049180414528,470.2608523797244L1131.2970050051808,387.2544597554952Z" fill="#5ccb9c" stroke="#5ccb9c"></path><path d="M1131.2970050051808,387.2544597554952L1111.8049180414528,470.2608523797244L1235.3627762105316,529.0171931125224Z" fill="#51c28d" stroke="#51c28d"></path><path d="M1131.2970050051808,387.2544597554952L1235.3627762105316,529.0171931125224L1280.1922854501754,331.0202184319496Z" fill="#56c391" stroke="#56c391"></path><path d="M1280.1922854501754,331.0202184319496L1235.3627762105316,529.0171931125224L1365.9617485664785,528.7521157879382Z" fill="#4aba81" stroke="#4aba81"></path><path d="M1280.1922854501754,331.0202184319496L1365.9617485664785,528.7521157879382L1434.7646291088313,342.11984801106155Z" fill="#51bb87" stroke="#51bb87"></path><path d="M1434.7646291088313,342.11984801106155L1365.9617485664785,528.7521157879382L1612.4778484459966,505.30909697525203Z" fill="#40ab75" stroke="#40ab75"></path><path d="M1434.7646291088313,342.11984801106155L1612.4778484459966,505.30909697525203L1613.661936353892,392.98046845011413Z" fill="#42a879" stroke="#42a879"></path><path d="M1613.661936353892,392.98046845011413L1612.4778484459966,505.30909697525203L1695.573904607445,538.8646373804659Z" fill="#329a67" stroke="#329a67"></path><path d="M1613.661936353892,392.98046845011413L1695.573904607445,538.8646373804659L1725.0784937571734,362.01529922895133Z" fill="#399b6e" stroke="#399b6e"></path><path d="M1725.0784937571734,362.01529922895133L1695.573904607445,538.8646373804659L1841.4997030422091,344.7648416273296Z" fill="#3c956d" stroke="#3c956d"></path><path d="M1841.4997030422091,344.7648416273296L1695.573904607445,538.8646373804659L1880.5706545058638,567.454522876069Z" fill="#318a5c" stroke="#318a5c"></path><path d="M1841.4997030422091,344.7648416273296L1880.5706545058638,567.454522876069L1987.0054373983294,568.7163536064327Z" fill="#2f8054" stroke="#2f8054"></path><path d="M1841.4997030422091,344.7648416273296L1987.0054373983294,568.7163536064327L2006.1967394594103,320.78400478698313Z" fill="#3c8462" stroke="#3c8462"></path><path d="M2006.1967394594103,320.78400478698313L1987.0054373983294,568.7163536064327L2047.0525591727346,667.2186919581145Z" fill="#2b744c" stroke="#2b744c"></path><path d="M-60.42540377005935,545.6982308719307L-111.98599454015493,674.9000600259751L41.178603982552886,673.0561814457178Z" fill="#94d8b3" stroke="#94d8b3"></path><path d="M-60.42540377005935,545.6982308719307L41.178603982552886,673.0561814457178L41.31393704563379,571.3526304066181Z" fill="#96dcb9" stroke="#96dcb9"></path><path d="M41.31393704563379,571.3526304066181L41.178603982552886,673.0561814457178L249.97697015292943,573.5352505277842Z" fill="#8fd8b3" stroke="#8fd8b3"></path><path d="M249.97697015292943,573.5352505277842L41.178603982552886,673.0561814457178L218.98713405244052,732.2836527228355Z" fill="#84cfa5" stroke="#84cfa5"></path><path d="M249.97697015292943,573.5352505277842L218.98713405244052,732.2836527228355L339.2979038134217,580.9060389082879Z" fill="#82d1a8" stroke="#82d1a8"></path><path d="M339.2979038134217,580.9060389082879L218.98713405244052,732.2836527228355L357.1012199576944,733.864670433104Z" fill="#78c89b" stroke="#78c89b"></path><path d="M339.2979038134217,580.9060389082879L357.1012199576944,733.864670433104L578.7852309923619,695.3034472279251Z" fill="#6ec697" stroke="#6ec697"></path><path d="M339.2979038134217,580.9060389082879L578.7852309923619,695.3034472279251L537.7587206661701,505.21025989204645Z" fill="#73cfa4" stroke="#73cfa4"></path><path d="M537.7587206661701,505.21025989204645L578.7852309923619,695.3034472279251L631.9032646715641,574.9711329862475Z" fill="#6acb9f" stroke="#6acb9f"></path><path d="M631.9032646715641,574.9711329862475L578.7852309923619,695.3034472279251L658.5901149082929,719.0674556046724Z" fill="#5dbf8d" stroke="#5dbf8d"></path><path d="M631.9032646715641,574.9711329862475L658.5901149082929,719.0674556046724L858.1341842841357,622.1285239979625Z" fill="#57bf8c" stroke="#57bf8c"></path><path d="M631.9032646715641,574.9711329862475L858.1341842841357,622.1285239979625L842.063866071403,478.79900115542114Z" fill="#5cc999" stroke="#5cc999"></path><path d="M842.063866071403,478.79900115542114L858.1341842841357,622.1285239979625L962.4747933726758,476.77032524719834Z" fill="#58c897" stroke="#58c897"></path><path d="M962.4747933726758,476.77032524719834L858.1341842841357,622.1285239979625L996.3202792033553,718.5212602000684Z" fill="#4abc82" stroke="#4abc82"></path><path d="M962.4747933726758,476.77032524719834L996.3202792033553,718.5212602000684L1157.9115798790008,653.4545395709574Z" fill="#42b677" stroke="#42b677"></path><path d="M962.4747933726758,476.77032524719834L1157.9115798790008,653.4545395709574L1111.8049180414528,470.2608523797244Z" fill="#4bc086" stroke="#4bc086"></path><path d="M1111.8049180414528,470.2608523797244L1157.9115798790008,653.4545395709574L1235.3627762105316,529.0171931125224Z" fill="#43b97a" stroke="#43b97a"></path><path d="M1235.3627762105316,529.0171931125224L1157.9115798790008,653.4545395709574L1310.473122568801,644.2608959320933Z" fill="#37ac68" stroke="#37ac68"></path><path d="M1235.3627762105316,529.0171931125224L1310.473122568801,644.2608959320933L1365.9617485664785,528.7521157879382Z" fill="#39ae6b" stroke="#39ae6b"></path><path d="M1365.9617485664785,528.7521157879382L1310.473122568801,644.2608959320933L1464.2404809594154,706.5771568380296Z" fill="#2da057" stroke="#2da057"></path><path d="M1365.9617485664785,528.7521157879382L1464.2404809594154,706.5771568380296L1520.7511749118567,701.3618129119277Z" fill="#26974f" stroke="#26974f"></path><path d="M1365.9617485664785,528.7521157879382L1520.7511749118567,701.3618129119277L1612.4778484459966,505.30909697525203Z" fill="#2c9c5b" stroke="#2c9c5b"></path><path d="M1612.4778484459966,505.30909697525203L1520.7511749118567,701.3618129119277L1695.573904607445,538.8646373804659Z" fill="#249253" stroke="#249253"></path><path d="M1695.573904607445,538.8646373804659L1520.7511749118567,701.3618129119277L1753.843802511692,703.0774800293148Z" fill="#198342" stroke="#198342"></path><path d="M1695.573904607445,538.8646373804659L1753.843802511692,703.0774800293148L1837.9668399039656,640.6094639003277Z" fill="#1c7c40" stroke="#1c7c40"></path><path d="M1695.573904607445,538.8646373804659L1837.9668399039656,640.6094639003277L1880.5706545058638,567.454522876069Z" fill="#227f47" stroke="#227f47"></path><path d="M1880.5706545058638,567.454522876069L1837.9668399039656,640.6094639003277L1987.0054373983294,568.7163536064327Z" fill="#21753f" stroke="#21753f"></path><path d="M1987.0054373983294,568.7163536064327L1837.9668399039656,640.6094639003277L2047.0525591727346,667.2186919581145Z" fill="#1c6b35" stroke="#1c6b35"></path><path d="M-111.98599454015493,674.9000600259751L-70.80643298104405,1095.292319431901L-81.03856813162565,922.5406227819622Z" fill="#7ca18a" stroke="#7ca18a"></path><path d="M-111.98599454015493,674.9000600259751L-81.03856813162565,922.5406227819622L-52.28742582723498,783.2875417359173Z" fill="#80b899" stroke="#80b899"></path><path d="M-111.98599454015493,674.9000600259751L-52.28742582723498,783.2875417359173L41.178603982552886,673.0561814457178Z" fill="#8acaa4" stroke="#8acaa4"></path><path d="M41.178603982552886,673.0561814457178L-52.28742582723498,783.2875417359173L111.72037580050528,774.1226136870682Z" fill="#80c19c" stroke="#80c19c"></path><path d="M41.178603982552886,673.0561814457178L111.72037580050528,774.1226136870682L218.98713405244052,732.2836527228355Z" fill="#7dc39c" stroke="#7dc39c"></path><path d="M218.98713405244052,732.2836527228355L111.72037580050528,774.1226136870682L204.02098218910396,855.8997021429241Z" fill="#71b491" stroke="#71b491"></path><path d="M218.98713405244052,732.2836527228355L204.02098218910396,855.8997021429241L357.1012199576944,733.864670433104Z" fill="#6eb590" stroke="#6eb590"></path><path d="M357.1012199576944,733.864670433104L204.02098218910396,855.8997021429241L404.1806331742555,770.7739889156073Z" fill="#67b08b" stroke="#67b08b"></path><path d="M357.1012199576944,733.864670433104L404.1806331742555,770.7739889156073L578.7852309923619,695.3034472279251Z" fill="#63b78c" stroke="#63b78c"></path><path d="M578.7852309923619,695.3034472279251L404.1806331742555,770.7739889156073L505.66035317257047,800.6485744658858Z" fill="#5bb186" stroke="#5bb186"></path><path d="M578.7852309923619,695.3034472279251L505.66035317257047,800.6485744658858L658.5901149082929,719.0674556046724Z" fill="#56b184" stroke="#56b184"></path><path d="M658.5901149082929,719.0674556046724L505.66035317257047,800.6485744658858L643.467574249953,879.8724907357246Z" fill="#4ba379" stroke="#4ba379"></path><path d="M658.5901149082929,719.0674556046724L643.467574249953,879.8724907357246L774.6635700110346,839.4467266369611Z" fill="#409c72" stroke="#409c72"></path><path d="M658.5901149082929,719.0674556046724L774.6635700110346,839.4467266369611L858.1341842841357,622.1285239979625Z" fill="#47ad79" stroke="#47ad79"></path><path d="M858.1341842841357,622.1285239979625L774.6635700110346,839.4467266369611L934.6588749904186,840.1033414620906Z" fill="#39a06c" stroke="#39a06c"></path><path d="M858.1341842841357,622.1285239979625L934.6588749904186,840.1033414620906L996.3202792033553,718.5212602000684Z" fill="#3aa66c" stroke="#3aa66c"></path><path d="M996.3202792033553,718.5212602000684L934.6588749904186,840.1033414620906L1099.1778392717242,815.6057966127992Z" fill="#2b955c" stroke="#2b955c"></path><path d="M996.3202792033553,718.5212602000684L1099.1778392717242,815.6057966127992L1157.9115798790008,653.4545395709574Z" fill="#2fa05f" stroke="#2fa05f"></path><path d="M1157.9115798790008,653.4545395709574L1099.1778392717242,815.6057966127992L1327.1080109942704,777.9528973158449Z" fill="#269552" stroke="#269552"></path><path d="M1157.9115798790008,653.4545395709574L1327.1080109942704,777.9528973158449L1310.473122568801,644.2608959320933Z" fill="#2b9e54" stroke="#2b9e54"></path><path d="M1310.473122568801,644.2608959320933L1327.1080109942704,777.9528973158449L1464.2404809594154,706.5771568380296Z" fill="#229348" stroke="#229348"></path><path d="M1464.2404809594154,706.5771568380296L1327.1080109942704,777.9528973158449L1444.2512990813702,861.6303627099842Z" fill="#157e3b" stroke="#157e3b"></path><path d="M1464.2404809594154,706.5771568380296L1444.2512990813702,861.6303627099842L1581.6371512971818,786.8608960043639Z" fill="#0f7636" stroke="#0f7636"></path><path d="M1464.2404809594154,706.5771568380296L1581.6371512971818,786.8608960043639L1520.7511749118567,701.3618129119277Z" fill="#15803c" stroke="#15803c"></path><path d="M1520.7511749118567,701.3618129119277L1581.6371512971818,786.8608960043639L1753.843802511692,703.0774800293148Z" fill="#0f7736" stroke="#0f7736"></path><path d="M1753.843802511692,703.0774800293148L1581.6371512971818,786.8608960043639L1755.4792182706296,833.8585717231035Z" fill="#07662b" stroke="#07662b"></path><path d="M1753.843802511692,703.0774800293148L1755.4792182706296,833.8585717231035L1860.7449488248676,853.4979861695319Z" fill="#045822" stroke="#045822"></path><path d="M1753.843802511692,703.0774800293148L1860.7449488248676,853.4979861695319L1837.9668399039656,640.6094639003277Z" fill="#0d642a" stroke="#0d642a"></path><path d="M1837.9668399039656,640.6094639003277L1860.7449488248676,853.4979861695319L2047.0525591727346,667.2186919581145Z" fill="#0f5e26" stroke="#0f5e26"></path><path d="M2047.0525591727346,667.2186919581145L1860.7449488248676,853.4979861695319L2078.0281329900026,818.3260860946029Z" fill="#06491b" stroke="#06491b"></path><path d="M-52.28742582723498,783.2875417359173L-81.03856813162565,922.5406227819622L53.64106731489301,919.4748114980757Z" fill="#78a58c" stroke="#78a58c"></path><path d="M-52.28742582723498,783.2875417359173L53.64106731489301,919.4748114980757L111.72037580050528,774.1226136870682Z" fill="#74ae91" stroke="#74ae91"></path><path d="M111.72037580050528,774.1226136870682L53.64106731489301,919.4748114980757L204.02098218910396,855.8997021429241Z" fill="#6fa78a" stroke="#6fa78a"></path><path d="M204.02098218910396,855.8997021429241L53.64106731489301,919.4748114980757L195.7755692023784,939.3459847010672Z" fill="#6e9a81" stroke="#6e9a81"></path><path d="M204.02098218910396,855.8997021429241L195.7755692023784,939.3459847010672L352.6141478866339,993.737701093778Z" fill="#68927a" stroke="#68927a"></path><path d="M204.02098218910396,855.8997021429241L352.6141478866339,993.737701093778L404.1806331742555,770.7739889156073Z" fill="#629d7e" stroke="#629d7e"></path><path d="M404.1806331742555,770.7739889156073L352.6141478866339,993.737701093778L505.66035317257047,800.6485744658858Z" fill="#599d7c" stroke="#599d7c"></path><path d="M505.66035317257047,800.6485744658858L352.6141478866339,993.737701093778L560.0248458143324,918.0711009632796Z" fill="#549172" stroke="#549172"></path><path d="M505.66035317257047,800.6485744658858L560.0248458143324,918.0711009632796L643.467574249953,879.8724907357246Z" fill="#4b9572" stroke="#4b9572"></path><path d="M643.467574249953,879.8724907357246L560.0248458143324,918.0711009632796L712.008195463568,1012.9229109082371Z" fill="#448363" stroke="#448363"></path><path d="M643.467574249953,879.8724907357246L712.008195463568,1012.9229109082371L785.0863429158926,992.5640129484236Z" fill="#3d7a5b" stroke="#3d7a5b"></path><path d="M643.467574249953,879.8724907357246L785.0863429158926,992.5640129484236L774.6635700110346,839.4467266369611Z" fill="#3b8662" stroke="#3b8662"></path><path d="M774.6635700110346,839.4467266369611L785.0863429158926,992.5640129484236L918.0067691858858,916.0796813014895Z" fill="#338059" stroke="#338059"></path><path d="M774.6635700110346,839.4467266369611L918.0067691858858,916.0796813014895L934.6588749904186,840.1033414620906Z" fill="#30895d" stroke="#30895d"></path><path d="M934.6588749904186,840.1033414620906L918.0067691858858,916.0796813014895L1093.1103271991014,942.2963919583708Z" fill="#297e4f" stroke="#297e4f"></path><path d="M934.6588749904186,840.1033414620906L1093.1103271991014,942.2963919583708L1099.1778392717242,815.6057966127992Z" fill="#24834e" stroke="#24834e"></path><path d="M1099.1778392717242,815.6057966127992L1093.1103271991014,942.2963919583708L1274.0982871502638,927.3924741335213Z" fill="#1e7741" stroke="#1e7741"></path><path d="M1099.1778392717242,815.6057966127992L1274.0982871502638,927.3924741335213L1327.1080109942704,777.9528973158449Z" fill="#197e42" stroke="#197e42"></path><path d="M1327.1080109942704,777.9528973158449L1274.0982871502638,927.3924741335213L1444.2512990813702,861.6303627099842Z" fill="#137335" stroke="#137335"></path><path d="M1444.2512990813702,861.6303627099842L1274.0982871502638,927.3924741335213L1477.6001932751387,917.7320759184659Z" fill="#10652b" stroke="#10652b"></path><path d="M1444.2512990813702,861.6303627099842L1477.6001932751387,917.7320759184659L1581.6371512971818,786.8608960043639Z" fill="#09662b" stroke="#09662b"></path><path d="M1581.6371512971818,786.8608960043639L1477.6001932751387,917.7320759184659L1547.0195471215993,977.429610863328Z" fill="#075a23" stroke="#075a23"></path><path d="M1581.6371512971818,786.8608960043639L1547.0195471215993,977.429610863328L1700.3789734840393,951.0852508898824Z" fill="#03511d" stroke="#03511d"></path><path d="M1581.6371512971818,786.8608960043639L1700.3789734840393,951.0852508898824L1755.4792182706296,833.8585717231035Z" fill="#005520" stroke="#005520"></path><path d="M1755.4792182706296,833.8585717231035L1700.3789734840393,951.0852508898824L1860.7449488248676,853.4979861695319Z" fill="#004718" stroke="#004718"></path><path d="M1860.7449488248676,853.4979861695319L1700.3789734840393,951.0852508898824L1918.6638770252466,965.0904534012079Z" fill="#00380e" stroke="#00380e"></path><path d="M1860.7449488248676,853.4979861695319L1918.6638770252466,965.0904534012079L2078.0281329900026,818.3260860946029Z" fill="#00370d" stroke="#00370d"></path><path d="M2078.0281329900026,818.3260860946029L1918.6638770252466,965.0904534012079L2054.5415558014065,1020.7913832273334Z" fill="#002405" stroke="#002405"></path><path d="M2078.0281329900026,818.3260860946029L2054.5415558014065,1020.7913832273334L2051.0757686477154,1078.2948266901076Z" fill="#001800" stroke="#001800"></path><path d="M-81.03856813162565,922.5406227819622L-70.80643298104405,1095.292319431901L53.64106731489301,919.4748114980757Z" fill="#798d7f" stroke="#798d7f"></path><path d="M53.64106731489301,919.4748114980757L-70.80643298104405,1095.292319431901L102.85840700380504,1136.5776082500815Z" fill="#757c7d" stroke="#757c7d"></path><path d="M53.64106731489301,919.4748114980757L102.85840700380504,1136.5776082500815L195.7755692023784,939.3459847010672Z" fill="#708679" stroke="#708679"></path><path d="M195.7755692023784,939.3459847010672L102.85840700380504,1136.5776082500815L216.42488848417997,1143.6466789897531Z" fill="#6c7877" stroke="#6c7877"></path><path d="M195.7755692023784,939.3459847010672L216.42488848417997,1143.6466789897531L352.6141478866339,993.737701093778Z" fill="#677d74" stroke="#677d74"></path><path d="M352.6141478866339,993.737701093778L216.42488848417997,1143.6466789897531L420.9337455779314,1182.4887627270073Z" fill="#617470" stroke="#617470"></path><path d="M352.6141478866339,993.737701093778L420.9337455779314,1182.4887627270073L548.9775841869414,1148.1019800435752Z" fill="#57706a" stroke="#57706a"></path><path d="M352.6141478866339,993.737701093778L548.9775841869414,1148.1019800435752L560.0248458143324,918.0711009632796Z" fill="#527668" stroke="#527668"></path><path d="M560.0248458143324,918.0711009632796L548.9775841869414,1148.1019800435752L655.4215329140425,1092.5561149511486Z" fill="#496b62" stroke="#496b62"></path><path d="M560.0248458143324,918.0711009632796L655.4215329140425,1092.5561149511486L712.008195463568,1012.9229109082371Z" fill="#44725e" stroke="#44725e"></path><path d="M712.008195463568,1012.9229109082371L655.4215329140425,1092.5561149511486L778.6896085459739,1131.1386593151838Z" fill="#3d6659" stroke="#3d6659"></path><path d="M712.008195463568,1012.9229109082371L778.6896085459739,1131.1386593151838L785.0863429158926,992.5640129484236Z" fill="#396657" stroke="#396657"></path><path d="M785.0863429158926,992.5640129484236L778.6896085459739,1131.1386593151838L932.9231242183596,1098.7859246693552Z" fill="#336151" stroke="#336151"></path><path d="M785.0863429158926,992.5640129484236L932.9231242183596,1098.7859246693552L918.0067691858858,916.0796813014895Z" fill="#2f6b4e" stroke="#2f6b4e"></path><path d="M918.0067691858858,916.0796813014895L932.9231242183596,1098.7859246693552L1093.1103271991014,942.2963919583708Z" fill="#296a45" stroke="#296a45"></path><path d="M1093.1103271991014,942.2963919583708L932.9231242183596,1098.7859246693552L1139.4661077763885,1099.4323358964175Z" fill="#245a3f" stroke="#245a3f"></path><path d="M1093.1103271991014,942.2963919583708L1139.4661077763885,1099.4323358964175L1274.0982871502638,927.3924741335213Z" fill="#1d6135" stroke="#1d6135"></path><path d="M1274.0982871502638,927.3924741335213L1139.4661077763885,1099.4323358964175L1236.2094197887927,1148.6037057358772Z" fill="#1a5031" stroke="#1a5031"></path><path d="M1274.0982871502638,927.3924741335213L1236.2094197887927,1148.6037057358772L1435.6483808811754,1071.5945441555232Z" fill="#154a28" stroke="#154a28"></path><path d="M1274.0982871502638,927.3924741335213L1435.6483808811754,1071.5945441555232L1477.6001932751387,917.7320759184659Z" fill="#105521" stroke="#105521"></path><path d="M1477.6001932751387,917.7320759184659L1435.6483808811754,1071.5945441555232L1547.0195471215993,977.429610863328Z" fill="#0a4a1c" stroke="#0a4a1c"></path><path d="M1547.0195471215993,977.429610863328L1435.6483808811754,1071.5945441555232L1540.0631988979876,1098.2871732115746Z" fill="#093a1b" stroke="#093a1b"></path><path d="M1547.0195471215993,977.429610863328L1540.0631988979876,1098.2871732115746L1700.3789734840393,951.0852508898824Z" fill="#033b15" stroke="#033b15"></path><path d="M1700.3789734840393,951.0852508898824L1540.0631988979876,1098.2871732115746L1760.645396495238,1117.953069973737Z" fill="#002a11" stroke="#002a11"></path><path d="M1700.3789734840393,951.0852508898824L1760.645396495238,1117.953069973737L1918.6638770252466,965.0904534012079Z" fill="#002809" stroke="#002809"></path><path d="M1918.6638770252466,965.0904534012079L1760.645396495238,1117.953069973737L1878.507015556097,1133.4861078020185Z" fill="#001906" stroke="#001906"></path><path d="M1918.6638770252466,965.0904534012079L1878.507015556097,1133.4861078020185L2051.0757686477154,1078.2948266901076Z" fill="#001000" stroke="#001000"></path><path d="M1918.6638770252466,965.0904534012079L2051.0757686477154,1078.2948266901076L2054.5415558014065,1020.7913832273334Z" fill="#001200" stroke="#001200"></path><path d="M102.85840700380504,1136.5776082500815L420.9337455779314,1182.4887627270073L216.42488848417997,1143.6466789897531Z" fill="#687774" stroke="#687774"></path><path d="M420.9337455779314,1182.4887627270073L1878.507015556097,1133.4861078020185L1236.2094197887927,1148.6037057358772Z" fill="#1c5234" stroke="#1c5234"></path><path d="M420.9337455779314,1182.4887627270073L1236.2094197887927,1148.6037057358772L778.6896085459739,1131.1386593151838Z" fill="#346253" stroke="#346253"></path><path d="M420.9337455779314,1182.4887627270073L778.6896085459739,1131.1386593151838L548.9775841869414,1148.1019800435752Z" fill="#4a6b62" stroke="#4a6b62"></path><path d="M548.9775841869414,1148.1019800435752L778.6896085459739,1131.1386593151838L655.4215329140425,1092.5561149511486Z" fill="#42685d" stroke="#42685d"></path><path d="M778.6896085459739,1131.1386593151838L1236.2094197887927,1148.6037057358772L932.9231242183596,1098.7859246693552Z" fill="#285b45" stroke="#285b45"></path><path d="M932.9231242183596,1098.7859246693552L1236.2094197887927,1148.6037057358772L1139.4661077763885,1099.4323358964175Z" fill="#20573b" stroke="#20573b"></path><path d="M1236.2094197887927,1148.6037057358772L1878.507015556097,1133.4861078020185L1760.645396495238,1117.953069973737Z" fill="#022e13" stroke="#022e13"></path><path d="M1236.2094197887927,1148.6037057358772L1760.645396495238,1117.953069973737L1540.0631988979876,1098.2871732115746Z" fill="#09391a" stroke="#09391a"></path><path d="M1236.2094197887927,1148.6037057358772L1540.0631988979876,1098.2871732115746L1435.6483808811754,1071.5945441555232Z" fill="#104321" stroke="#104321"></path></g></svg>